<svg xmlns="http://www.w3.org/2000/svg" width="183.62" height="20.4"><path data-name="パス 1" d="M4.14 16.2c2.72 0 4.18-1.5 4.18-3.34 0-2.08-1.7-2.76-3.24-3.34-1.2-.44-2.34-.8-2.34-1.74 0-.76.56-1.36 1.76-1.36a4.116 4.116 0 012.46.96l1.08-1.42a5.79 5.79 0 00-3.58-1.3c-2.42 0-3.9 1.38-3.9 3.22 0 1.86 1.68 2.64 3.14 3.2 1.2.46 2.44.9 2.44 1.9 0 .84-.62 1.48-1.94 1.48a4.876 4.876 0 01-3.12-1.26L0 14.68a6.766 6.766 0 004.14 1.52zm9.22 0a5.468 5.468 0 003.5-1.52h.06l.2 1.26H19V9.32c0-2.92-1.26-4.66-4-4.66a8.425 8.425 0 00-4.44 1.44l.86 1.56a6.049 6.049 0 013.18-1.12c1.62 0 2.08 1.12 2.1 2.4-4.58.5-6.58 1.72-6.58 4.08a3.039 3.039 0 003.24 3.18zm.7-1.82c-.98 0-1.72-.44-1.72-1.52 0-1.24 1.1-2.06 4.36-2.46v2.7a3.878 3.878 0 01-2.64 1.28zm8.2 1.56h2.28v-7.8a3.713 3.713 0 012.48-1.5c1.26 0 1.84.76 1.84 2.66v6.64h2.3v-7.8a3.672 3.672 0 012.48-1.5c1.24 0 1.84.76 1.84 2.66v6.64h2.3V9.02c0-2.8-1.08-4.36-3.38-4.36a5.068 5.068 0 00-3.58 2.02 2.936 2.936 0 00-3.04-2.02 4.792 4.792 0 00-3.4 1.82h-.06l-.18-1.54h-1.88zM41.1 20.4h2.28v-3.56l-.06-1.88a4.536 4.536 0 002.9 1.24c2.48 0 4.74-2.16 4.74-5.94 0-3.38-1.56-5.6-4.36-5.6a5.577 5.577 0 00-3.38 1.48h-.06l-.18-1.2H41.1zm4.68-6.1a3.728 3.728 0 01-2.4-1V7.92A3.865 3.865 0 0146 6.58c1.84 0 2.58 1.42 2.58 3.72 0 2.58-1.2 4-2.8 4zm10.2 1.9a3.694 3.694 0 001.24-.18l-.3-1.74a1.6 1.6 0 01-.38.04c-.28 0-.56-.22-.56-.84V0H53.7v13.36c0 1.78.62 2.84 2.28 2.84zm8.26 0a6.674 6.674 0 003.72-1.16l-.8-1.46a4.671 4.671 0 01-2.62.82 3.322 3.322 0 01-3.4-3.36h7.14a5.945 5.945 0 00.1-1.16c0-3.12-1.56-5.22-4.48-5.22-2.58 0-5.02 2.22-5.02 5.8 0 3.62 2.38 5.74 5.36 5.74zm-3.12-6.74c.22-1.94 1.44-3 2.82-3 1.6 0 2.46 1.1 2.46 3zm9.26 1.68h5.28v-1.7h-5.28zm10.54 5.06a5.468 5.468 0 003.5-1.52h.06l.2 1.26h1.88V9.32c0-2.92-1.26-4.66-4-4.66a8.425 8.425 0 00-4.44 1.44l.86 1.56a6.049 6.049 0 013.18-1.12c1.62 0 2.08 1.12 2.1 2.4-4.58.5-6.58 1.72-6.58 4.08a3.039 3.039 0 003.24 3.18zm.7-1.82c-.98 0-1.72-.44-1.72-1.52 0-1.24 1.1-2.06 4.36-2.46v2.7a3.878 3.878 0 01-2.64 1.28zm8.2 1.56h2.28v-7.8c.98-.98 1.68-1.5 2.7-1.5 1.3 0 1.86.76 1.86 2.66v6.64h2.3V9.02c0-2.8-1.04-4.36-3.38-4.36a5.242 5.242 0 00-3.64 1.8h-.06l-.18-1.52h-1.88zm12.48 0h2.28v-11h-2.28zm1.14-13.06a1.38 1.38 0 001.48-1.36 1.368 1.368 0 00-1.48-1.36 1.351 1.351 0 00-1.46 1.36 1.363 1.363 0 001.46 1.36zm4.6 13.06h2.28v-7.8a3.713 3.713 0 012.48-1.5c1.26 0 1.84.76 1.84 2.66v6.64h2.3v-7.8a3.672 3.672 0 012.48-1.5c1.24 0 1.84.76 1.84 2.66v6.64h2.3V9.02c0-2.8-1.08-4.36-3.38-4.36a5.068 5.068 0 00-3.58 2.02 2.936 2.936 0 00-3.04-2.02 4.792 4.792 0 00-3.4 1.82h-.06l-.18-1.54h-1.88zm21.44.26a5.468 5.468 0 003.5-1.52h.06l.2 1.26h1.88V9.32c0-2.92-1.26-4.66-4-4.66a8.425 8.425 0 00-4.44 1.44l.86 1.56a6.049 6.049 0 013.18-1.12c1.62 0 2.08 1.12 2.1 2.4-4.58.5-6.58 1.72-6.58 4.08a3.039 3.039 0 003.24 3.18zm.7-1.82c-.98 0-1.72-.44-1.72-1.52 0-1.24 1.1-2.06 4.36-2.46v2.7a3.878 3.878 0 01-2.64 1.28zm11.56 1.82a7.038 7.038 0 002.16-.4l-.42-1.7a3.279 3.279 0 01-1.18.26c-1.14 0-1.6-.68-1.6-2V6.78h2.86V4.94h-2.86V1.9h-1.94l-.26 3.04-1.7.12v1.72h1.6v5.56c0 2.32.86 3.86 3.34 3.86zm4.22-.26h2.28v-11h-2.28zm1.14-13.06a1.38 1.38 0 001.48-1.36A1.368 1.368 0 00147.1.16a1.351 1.351 0 00-1.46 1.36 1.363 1.363 0 001.46 1.36zm9 13.32c2.72 0 5.18-2.1 5.18-5.74 0-3.68-2.46-5.8-5.18-5.8s-5.18 2.12-5.18 5.8c0 3.64 2.46 5.74 5.18 5.74zm0-1.88c-1.72 0-2.8-1.54-2.8-3.86 0-2.34 1.08-3.9 2.8-3.9 1.74 0 2.82 1.56 2.82 3.9 0 2.32-1.08 3.86-2.82 3.86zm7.88 1.62h2.28v-7.8c.98-.98 1.68-1.5 2.7-1.5 1.3 0 1.86.76 1.86 2.66v6.64h2.3V9.02c0-2.8-1.04-4.36-3.38-4.36a5.242 5.242 0 00-3.64 1.8h-.06l-.18-1.52h-1.88zm15.46.26c2.72 0 4.18-1.5 4.18-3.34 0-2.08-1.7-2.76-3.24-3.34-1.2-.44-2.34-.8-2.34-1.74 0-.76.56-1.36 1.76-1.36a4.116 4.116 0 012.46.96l1.08-1.42a5.79 5.79 0 00-3.58-1.3c-2.42 0-3.9 1.38-3.9 3.22 0 1.86 1.68 2.64 3.14 3.2 1.2.46 2.44.9 2.44 1.9 0 .84-.62 1.48-1.94 1.48a4.876 4.876 0 01-3.12-1.26l-1.08 1.48a6.766 6.766 0 004.14 1.52z"/></svg>