<svg xmlns="http://www.w3.org/2000/svg" width="183.62" height="20.4" viewBox="0 0 183.62 20.4">
  <path id="パス_1" data-name="パス 1" d="M4.72.26C7.44.26,8.9-1.24,8.9-3.08c0-2.08-1.7-2.76-3.24-3.34-1.2-.44-2.34-.8-2.34-1.74,0-.76.56-1.36,1.76-1.36a4.116,4.116,0,0,1,2.46.96L8.62-9.98a5.79,5.79,0,0,0-3.58-1.3c-2.42,0-3.9,1.38-3.9,3.22,0,1.86,1.68,2.64,3.14,3.2,1.2.46,2.44.9,2.44,1.9,0,.84-.62,1.48-1.94,1.48A4.876,4.876,0,0,1,1.66-2.74L.58-1.26A6.766,6.766,0,0,0,4.72.26Zm9.22,0a5.468,5.468,0,0,0,3.5-1.52h.06L17.7,0h1.88V-6.62c0-2.92-1.26-4.66-4-4.66a8.425,8.425,0,0,0-4.44,1.44L12-8.28A6.049,6.049,0,0,1,15.18-9.4c1.62,0,2.08,1.12,2.1,2.4-4.58.5-6.58,1.72-6.58,4.08A3.039,3.039,0,0,0,13.94.26Zm.7-1.82c-.98,0-1.72-.44-1.72-1.52,0-1.24,1.1-2.06,4.36-2.46v2.7A3.878,3.878,0,0,1,14.64-1.56ZM22.84,0h2.28V-7.8A3.713,3.713,0,0,1,27.6-9.3c1.26,0,1.84.76,1.84,2.66V0h2.3V-7.8a3.672,3.672,0,0,1,2.48-1.5c1.24,0,1.84.76,1.84,2.66V0h2.3V-6.92c0-2.8-1.08-4.36-3.38-4.36A5.068,5.068,0,0,0,31.4-9.26a2.936,2.936,0,0,0-3.04-2.02,4.792,4.792,0,0,0-3.4,1.82H24.9L24.72-11H22.84ZM41.68,4.46h2.28V.9L43.9-.98A4.536,4.536,0,0,0,46.8.26c2.48,0,4.74-2.16,4.74-5.94,0-3.38-1.56-5.6-4.36-5.6A5.577,5.577,0,0,0,43.8-9.8h-.06L43.56-11H41.68Zm4.68-6.1a3.728,3.728,0,0,1-2.4-1V-8.02a3.865,3.865,0,0,1,2.62-1.34c1.84,0,2.58,1.42,2.58,3.72C49.16-3.06,47.96-1.64,46.36-1.64ZM56.56.26A3.694,3.694,0,0,0,57.8.08l-.3-1.74a1.6,1.6,0,0,1-.38.04c-.28,0-.56-.22-.56-.84V-15.94H54.28V-2.58C54.28-.8,54.9.26,56.56.26Zm8.26,0A6.674,6.674,0,0,0,68.54-.9l-.8-1.46a4.671,4.671,0,0,1-2.62.82,3.322,3.322,0,0,1-3.4-3.36h7.14a5.945,5.945,0,0,0,.1-1.16c0-3.12-1.56-5.22-4.48-5.22-2.58,0-5.02,2.22-5.02,5.8C59.46-1.86,61.84.26,64.82.26ZM61.7-6.48c.22-1.94,1.44-3,2.82-3,1.6,0,2.46,1.1,2.46,3ZM70.96-4.8h5.28V-6.5H70.96ZM81.5.26A5.468,5.468,0,0,0,85-1.26h.06L85.26,0h1.88V-6.62c0-2.92-1.26-4.66-4-4.66A8.425,8.425,0,0,0,78.7-9.84l.86,1.56A6.049,6.049,0,0,1,82.74-9.4c1.62,0,2.08,1.12,2.1,2.4-4.58.5-6.58,1.72-6.58,4.08A3.039,3.039,0,0,0,81.5.26Zm.7-1.82c-.98,0-1.72-.44-1.72-1.52,0-1.24,1.1-2.06,4.36-2.46v2.7A3.878,3.878,0,0,1,82.2-1.56ZM90.4,0h2.28V-7.8c.98-.98,1.68-1.5,2.7-1.5,1.3,0,1.86.76,1.86,2.66V0h2.3V-6.92c0-2.8-1.04-4.36-3.38-4.36a5.242,5.242,0,0,0-3.64,1.8h-.06L92.28-11H90.4Zm12.48,0h2.28V-11h-2.28Zm1.14-13.06a1.38,1.38,0,0,0,1.48-1.36,1.368,1.368,0,0,0-1.48-1.36,1.351,1.351,0,0,0-1.46,1.36A1.363,1.363,0,0,0,104.02-13.06ZM108.62,0h2.28V-7.8a3.713,3.713,0,0,1,2.48-1.5c1.26,0,1.84.76,1.84,2.66V0h2.3V-7.8A3.672,3.672,0,0,1,120-9.3c1.24,0,1.84.76,1.84,2.66V0h2.3V-6.92c0-2.8-1.08-4.36-3.38-4.36a5.068,5.068,0,0,0-3.58,2.02,2.936,2.936,0,0,0-3.04-2.02,4.792,4.792,0,0,0-3.4,1.82h-.06L110.5-11h-1.88Zm21.44.26a5.468,5.468,0,0,0,3.5-1.52h.06l.2,1.26h1.88V-6.62c0-2.92-1.26-4.66-4-4.66a8.425,8.425,0,0,0-4.44,1.44l.86,1.56A6.049,6.049,0,0,1,131.3-9.4c1.62,0,2.08,1.12,2.1,2.4-4.58.5-6.58,1.72-6.58,4.08A3.039,3.039,0,0,0,130.06.26Zm.7-1.82c-.98,0-1.72-.44-1.72-1.52,0-1.24,1.1-2.06,4.36-2.46v2.7A3.878,3.878,0,0,1,130.76-1.56ZM142.32.26a7.038,7.038,0,0,0,2.16-.4l-.42-1.7a3.279,3.279,0,0,1-1.18.26c-1.14,0-1.6-.68-1.6-2V-9.16h2.86V-11h-2.86v-3.04h-1.94L139.08-11l-1.7.12v1.72h1.6V-3.6C138.98-1.28,139.84.26,142.32.26ZM146.54,0h2.28V-11h-2.28Zm1.14-13.06a1.38,1.38,0,0,0,1.48-1.36,1.368,1.368,0,0,0-1.48-1.36,1.351,1.351,0,0,0-1.46,1.36A1.363,1.363,0,0,0,147.68-13.06Zm9,13.32c2.72,0,5.18-2.1,5.18-5.74,0-3.68-2.46-5.8-5.18-5.8s-5.18,2.12-5.18,5.8C151.5-1.84,153.96.26,156.68.26Zm0-1.88c-1.72,0-2.8-1.54-2.8-3.86,0-2.34,1.08-3.9,2.8-3.9,1.74,0,2.82,1.56,2.82,3.9C159.5-3.16,158.42-1.62,156.68-1.62ZM164.56,0h2.28V-7.8c.98-.98,1.68-1.5,2.7-1.5,1.3,0,1.86.76,1.86,2.66V0h2.3V-6.92c0-2.8-1.04-4.36-3.38-4.36a5.242,5.242,0,0,0-3.64,1.8h-.06L166.44-11h-1.88Zm15.46.26c2.72,0,4.18-1.5,4.18-3.34,0-2.08-1.7-2.76-3.24-3.34-1.2-.44-2.34-.8-2.34-1.74,0-.76.56-1.36,1.76-1.36a4.116,4.116,0,0,1,2.46.96l1.08-1.42a5.79,5.79,0,0,0-3.58-1.3c-2.42,0-3.9,1.38-3.9,3.22,0,1.86,1.68,2.64,3.14,3.2,1.2.46,2.44.9,2.44,1.9,0,.84-.62,1.48-1.94,1.48a4.876,4.876,0,0,1-3.12-1.26l-1.08,1.48A6.766,6.766,0,0,0,180.02.26Z" transform="translate(-0.58 15.94)"/>
</svg>
